<svg id="Layer_1" data-name="Layer 1" xmlns="http://www.w3.org/2000/svg" viewBox="0 0 300 53.17"><defs><style>.cls-1{fill:#1f2f5e;fill-rule:evenodd;}</style></defs><title>Roadworks-Logo-Navy-scaling</title><path class="cls-1" d="M296,22.06a1.8,1.8,0,1,1,1.79,1.65A1.7,1.7,0,0,1,296,22.06h0Zm1.33,0.16h0.45l0.66,1h0.44l-0.72-1a0.62,0.62,0,0,0,.65-0.63c0-.45-0.29-0.65-0.9-0.65h-1v2.28h0.38v-1h0Zm-29,11.41a6.12,6.12,0,0,1-.36-0.93c-0.09-.3-0.19-0.64-0.31-1l-1.48-4.53,3.21-3.08a10.65,10.65,0,0,1,1.1-.87,4.82,4.82,0,0,1,1.2-.53l1-5.12H262.56l-0.46,2.34a4.06,4.06,0,0,1-.62,1.5,6.8,6.8,0,0,1-1,1.18c-0.37.34-1.09,1-2.16,1.89l2.94-15H251.06l-1,5a2.08,2.08,0,0,1,.71,2.25l-3.13,15.91a4.44,4.44,0,0,1-.48,1.39,3.24,3.24,0,0,1-1.14,1l-1,5h11.29l1-5a2.08,2.08,0,0,1-.68-2.21l0.49-2.5h0.08l3.32,9.76h8.15l1-5a2.71,2.71,0,0,1-.83-0.6,3.05,3.05,0,0,1-.55-0.83h0Zm-36.6-8.83a7.68,7.68,0,0,0-.2-4.66,4.53,4.53,0,0,0-3-2.33,22.77,22.77,0,0,0-6.08-.71,21.21,21.21,0,0,0-6.59.84A7.76,7.76,0,0,0,212,20.42a9.94,9.94,0,0,0-1.8,4.24l-1.56,7.9a8.33,8.33,0,0,0,.14,4.73,4.58,4.58,0,0,0,3,2.5,22,22,0,0,0,6.5.82,19.84,19.84,0,0,0,5.94-.77,8.08,8.08,0,0,0,3.85-2.5,9.91,9.91,0,0,0,2-4.56l1.57-8h0Zm17.48-7.62-1.52,7.69a6.35,6.35,0,0,0-3.65.86A5,5,0,0,0,242.3,29l-0.65,3.3a6.64,6.64,0,0,0-.16,1.43,1.88,1.88,0,0,0,.16.79,0.81,0.81,0,0,0,.34.35l0.37,0.21-1,5H229.94l1-5.12a2.68,2.68,0,0,0,1.17-1,7.22,7.22,0,0,0,.52-1.78l1.37-7a4.43,4.43,0,0,0,.09-1.55,1.63,1.63,0,0,0-.73-1l1-5.11h9.73l-0.37,1.82a5.27,5.27,0,0,1,4.11-2.25,8.72,8.72,0,0,1,1.32.07h0Zm35.46,8.19,0.15-.79q0.44-2.22-1.27-2.22a2.26,2.26,0,0,0-1.39.45,1.77,1.77,0,0,0-.72,1.1,1.12,1.12,0,0,0,.61,1.42,14.21,14.21,0,0,0,2.86.71,25.65,25.65,0,0,1,4.62,1.33,4.62,4.62,0,0,1,2.36,2.1,5.91,5.91,0,0,1,.25,3.8q-1.56,7.33-11.89,7.33a24.25,24.25,0,0,1-5.53-.77,8.86,8.86,0,0,1-4.26-2.31l1.14-5.79h8.54l-0.3,1.53c-0.26,1.34.17,2,1.32,2a2.08,2.08,0,0,0,1.38-.5,2,2,0,0,0,.73-1.17,1.48,1.48,0,0,0-.48-1.61,5.53,5.53,0,0,0-2.12-.85l-3.21-.73a12.2,12.2,0,0,1-3-1.07Q272,28,272.59,24.19A7.87,7.87,0,0,1,274.7,20a8.6,8.6,0,0,1,3.87-2.21,19.63,19.63,0,0,1,5.27-.64h0.69a21.72,21.72,0,0,1,5,.62A10.29,10.29,0,0,1,294.06,20l-1,5.33h-8.38Zm-72.84-7.93c-0.19.46-.35,0.84-0.49,1.14l-8.48,21.53h-11l0.06-14.66h-0.09l-6.6,14.66H172.82l3.72-22.84c0-.21.08-0.41,0.14-0.6a2.06,2.06,0,0,0-.69-2.16l1-5H188.5l-1.2,5.4a1.29,1.29,0,0,0-.91.28,1.74,1.74,0,0,0-.43.9l-0.17,1.06-1.27,11.5h0.18l8.63-19.14h5.49L199,28.37h0l4-11a3.71,3.71,0,0,1,.12-0.45c0.07-.2.1-0.32,0.11-0.38a1.68,1.68,0,0,0,0-1,1.28,1.28,0,0,0-.72-0.62l1.07-5.43h11.05l-1.06,5.36a5.29,5.29,0,0,0-.78.73,4.76,4.76,0,0,0-.52.77,11.9,11.9,0,0,0-.52,1.12h0Zm85.52,4.48h0.46c0.33,0,.62,0,0.62-0.37s-0.28-.33-0.55-0.33h-0.53v0.7h0Zm-74.6,2.59-1.62,8.26a4.13,4.13,0,0,1-.79,2,1.79,1.79,0,0,1-1.35.52,1.32,1.32,0,0,1-1.2-.5,3.14,3.14,0,0,1,0-2l1.62-8.26c0.28-1.44,1-2.15,2.07-2.15s1.58,0.71,1.3,2.15h0ZM297.77,24a2.09,2.09,0,0,0,2.23-2,2.25,2.25,0,0,0-4.46,0,2.11,2.11,0,0,0,2.24,2h0Z" transform="translate(0)"/><path class="cls-1" d="M126.19,20.15a4.53,4.53,0,0,0-3-2.33,22.81,22.81,0,0,0-6.09-.71,21.23,21.23,0,0,0-6.59.84,7.78,7.78,0,0,0-3.81,2.47,10,10,0,0,0-1.8,4.24l-1.56,7.9a8.33,8.33,0,0,0,.14,4.73,4.59,4.59,0,0,0,3,2.5,22,22,0,0,0,6.5.82,19.84,19.84,0,0,0,5.94-.77,8.12,8.12,0,0,0,3.85-2.5,10,10,0,0,0,2-4.56l1.57-8a7.67,7.67,0,0,0-.2-4.66h0Zm22.54,0a7.65,7.65,0,0,1,.19,4.66L148,29.45l-0.54,2.76c-0.1.66-.17,1.14-0.2,1.36L146.64,37a1.83,1.83,0,0,0,.7,2l-0.21,1H136.79l0.17-.8s-1,1.32-4.74,1.12a15,15,0,0,1-3.15-.63,4.58,4.58,0,0,1-3-2.5,7.75,7.75,0,0,1-.24-4.17h0c0-.06,0-0.12,0-0.18s0-.24.07-0.37l0.06-.29h0c1.68-6.62,11.36-6.28,13.62-6.11L140,24.51c0.28-1.44-.16-2.15-1.3-2.15s-1.78.71-2.07,2.15l-0.11.54h-8.31L129,20.79l0.26-.37a7.74,7.74,0,0,1,3.81-2.47,21.22,21.22,0,0,1,6.59-.84,22.75,22.75,0,0,1,6.08.71,4.55,4.55,0,0,1,3,2.33h0Zm-10.4,12.63,0.37-1.92c-3.24-.94-3.73,1.92-3.73,1.92a3.18,3.18,0,0,0,0,2,1.33,1.33,0,0,0,1.21.5,1.81,1.81,0,0,0,1.35-.52,4.14,4.14,0,0,0,.79-2h0ZM164.8,9.47l-1,5a2.06,2.06,0,0,1,.7,2.23l-0.09.54h-0.07c-0.35-.52-1.82-0.59-2.94-0.56a18.87,18.87,0,0,0-5.18.81,7.74,7.74,0,0,0-3.81,2.47,9.93,9.93,0,0,0-1.8,4.24l-1.55,7.9a8.28,8.28,0,0,0,.14,4.73,4.57,4.57,0,0,0,3,2.5,19.52,19.52,0,0,0,5.38.79h12.47l1-5a2.06,2.06,0,0,1-.69-2.16c0-.2.09-0.4,0.13-0.6l1.57-8c0.05-.26.09-0.51,0.13-0.76L175,9.47H164.8Zm-60.36,9A8.94,8.94,0,0,1,98.72,27v0.29L102,36.14l-0.78,4H88.83l1-5A3.24,3.24,0,0,0,91,34l0,0-2.18-6.5H85.89l-1.06,5.37a2.07,2.07,0,0,0,.67,2.21l-1,5H73.23l1-5a3.23,3.23,0,0,0,1.14-1,4.26,4.26,0,0,0,.48-1.39L79,16.72a2.08,2.08,0,0,0-.7-2.25l1-5H96.7v0c4.31,0.27,7.74,4.18,7.74,9h0Zm13,6-1.63,8.26a4.1,4.1,0,0,1-.79,2,1.8,1.8,0,0,1-1.34.52,1.32,1.32,0,0,1-1.2-.5,3.13,3.13,0,0,1,0-2l1.62-8.26c0.29-1.44,1-2.15,2.07-2.15s1.58,0.71,1.3,2.15h0Zm45.75-.92-1.77,9c0,0.08-.07.28-0.14,0.56a2.84,2.84,0,0,1-.56,1.09,1.81,1.81,0,0,1-1.35.52,1.33,1.33,0,0,1-1.2-.5,3.17,3.17,0,0,1,0-2L159.74,24c0.28-1.44,1-2.15,2.07-2.15s1.47,0.57,1.36,1.7h0ZM91.35,20.72h0s2.57,0,2.57-2.26-2.57-2.21-2.57-2.21H87.86L87,20.72h4.34Z" transform="translate(0)"/><path class="cls-1" d="M35.17,0C15.75,0,0,11.9,0,26.59S15.75,53.17,35.17,53.17a42.21,42.21,0,0,0,23-6.47l-4.79-2.82h0c-6.47-3.83-17.46-10.14-18.72-15C34,26.41,36.56,25,38.71,23.73c4.12-2.48,8.91-5,6.94-9.54-1.89-4.36-8-7.29-14-9.55q1.73-.16,3.51-0.16c16.15,0,29.24,9.9,29.24,22.1A18.73,18.73,0,0,1,58.71,39.7l4.77,2.67a22.54,22.54,0,0,0,6.87-15.78C70.35,11.9,54.6,0,35.17,0ZM35.1,18.51c-3.12,2.11-6.79,4-8.73,7.19-4.61,7.47,6.47,16.68,14.11,22.62a38.49,38.49,0,0,1-5.31.36c-16.15,0-29.24-9.9-29.24-22.1C5.93,16.53,14.82,8,27,5.36a23.85,23.85,0,0,1,6.9,4,10.37,10.37,0,0,1,3.44,4.31C38,15.84,36.87,17.32,35.1,18.51Z" transform="translate(0)"/></svg>